<?xml version="1.0" encoding="UTF-8"?>
<svg xmlns:xlink="http://www.w3.org/1999/xlink" width="16px" height="16px" viewBox="0 0 16 16" version="1.1"
     xmlns="http://www.w3.org/2000/svg">
    <!-- Generator: Sketch 52 (66869) - http://www.bohemiancoding.com/sketch -->
    <title>icon/fb-s/active</title>
    <desc>Created with Sketch.</desc>
    <g id="icon/fb-s/active" stroke="none" stroke-width="1" fill="none" fill-rule="evenodd">
        <path d="M2.1560478,0 C0.965319178,0 0,0.965280037 0,2.1560478 L0,13.8439913 C0,15.0347591 0.965280037,16.0000391 2.1560478,16.0000391 L7.92044718,16.0000391 L7.93027141,10.2824908 L6.44485487,10.2824908 C6.25181452,10.2824908 6.09513558,10.126399 6.09439192,9.93335861 L6.08726837,8.09035557 C6.0865247,7.89625842 6.24367332,7.7385227 6.43777047,7.7385227 L7.92048632,7.7385227 L7.92048632,5.95771371 C7.92048632,3.89110168 9.18264613,2.76581577 11.0261971,2.76581577 L12.5389728,2.76581577 C12.732522,2.76581577 12.8894749,2.92272955 12.8894749,3.11631787 L12.8894749,4.67034749 C12.8894749,4.86385753 12.7326394,5.02073217 12.5391685,5.02084959 L11.6107979,5.02128014 C10.608217,5.02128014 10.4140808,5.49769683 10.4140808,6.19686143 L10.4140808,7.73856184 L12.617097,7.73856184 C12.8270069,7.73856184 12.98987,7.92185623 12.9651333,8.13031789 L12.7466908,9.97332094 C12.7257898,10.1496875 12.5762345,10.2825691 12.3986545,10.2825691 L10.423905,10.2825691 L10.4140808,16.0001174 L13.8439913,16.0001174 C15.03472,16.0001174 16,15.0348374 16,13.8441088 L16,2.1560478 C15.9999609,0.965280037 15.0346808,0 13.8439131,0 L2.1560478,0 Z"
              id="icon/fb-s/inactive" fill="#666666"></path>
    </g>
</svg>