<?xml version="1.0" encoding="UTF-8"?>
<svg width="17px" height="17px" viewBox="0 0 17 17" version="1.1" xmlns="http://www.w3.org/2000/svg" xmlns:xlink="http://www.w3.org/1999/xlink">
    <!-- Generator: Sketch 52 (66869) - http://www.bohemiancoding.com/sketch -->
    <title>icon/inst-s/active</title>
    <desc>Created with Sketch.</desc>
    <g id="icon/inst-s/active" stroke="none" stroke-width="1" fill="none" fill-rule="evenodd">
        <g id="abc" fill="#666666">
            <path d="M8.47722985,7.04578667 C7.663056,7.04578667 7,7.70844849 7,8.52262234 C7,9.33714108 7.663056,10 8.47722985,10 C9.2917486,10 9.95421333,9.33714108 9.95421333,8.52262234 C9.95421333,7.70844849 9.2917486,7.04578667 8.47722985,7.04578667 Z" id="Fill-2"></path>
            <path d="M2,17 L15,17 C16.1045695,17 17,16.1045695 17,15 L17,2.04533333 C17,0.940763834 16.1045695,0.0453333333 15,0.0453333333 L2,0.0453333333 C0.8954305,0.0453333333 -1.3527075e-16,0.940763834 0,2.04533333 L0,15 C1.3527075e-16,16.1045695 0.8954305,17 2,17 Z M14,11.2252115 C14,12.7555252 12.7555252,14 11.2252115,14 L5.77478854,14 C4.24469304,14 3,12.7555252 3,11.2252115 L3,5.77478854 C3,4.24469304 4.24469304,3 5.77478854,3 L11.2252115,3 C12.7555252,3 14,4.24469304 14,5.77478854 L14,11.2252115 Z" id="Fill-4"></path>
            <path d="M11.3498982,4 L5.6498735,4 C4.74036004,4 4,4.74036004 4,5.6498735 L4,11.3498982 C4,12.25964 4.74036004,13 5.6498735,13 L11.3498982,13 C12.25964,13 13,12.25964 13,11.3498982 L13,5.6498735 C13,4.74036004 12.25964,4 11.3498982,4 Z M8.49990369,11 C7.12166769,11 6,9.87852492 6,8.49990369 C6,7.12166769 7.12166769,6 8.49990369,6 C9.87852492,6 11,7.12166769 11,8.49990369 C11,9.87852492 9.87852492,11 8.49990369,11 Z M11.5001831,6 C11.2243295,6 11,5.77566138 11,5.5 C11,5.22429792 11.2243295,5 11.5001831,5 C11.7756705,5 12,5.22429792 12,5.5 C12,5.77566138 11.7756705,6 11.5001831,6 Z" id="Fill-1"></path>
        </g>
    </g>
</svg>
