<?xml version="1.0" encoding="UTF-8"?>
<svg width="158px" height="176px" viewBox="0 0 158 176" version="1.1" xmlns="http://www.w3.org/2000/svg" xmlns:xlink="http://www.w3.org/1999/xlink">
    <defs>
        <linearGradient x1="50%" y1="0%" x2="50%" y2="100%" id="linearGradient-1">
            <stop stop-color="#0584C0" offset="0%"></stop>
            <stop stop-color="#3392FD" offset="100%"></stop>
        </linearGradient>
        <linearGradient x1="50%" y1="0%" x2="50%" y2="100%" id="linearGradient-2">
            <stop stop-color="#013E2B" offset="0%"></stop>
            <stop stop-color="#015A45" offset="100%"></stop>
        </linearGradient>
    </defs>
    <g id="Page-1" stroke="none" stroke-width="1" fill="none" fill-rule="evenodd">
        <g id="App/Login-alert-" transform="translate(-20.000000, -149.000000)">
            <g id="Logo" transform="translate(20.000000, 148.000000)">
                <path d="M123,176.9 L112.64,176.9 C112.513648,176.912632 112.386352,176.912632 112.26,176.9 L110.33,176.51 C97.2,173.85 87.57,166.51 81.69,154.51 C77.38,145.73 76.53,136.44 78.12,126.74 C79.81,116.32 73,107 62.75,104.9 C60.56,104.45 58.37,104 56.17,103.62 C44.64,101.62 34.3,97.45 25.84,88.89 C10,72.87 5.71,52.63 14.14,31.7 C22.23,11.59 44.52,-1.78 67.1,1.49 C86.46,4.3 99.93,15 107.32,33.16 C110.571147,40.9241261 111.85911,49.3697305 111.07,57.75 C110.46,63.99 108.84,70.04 107.92,76.21 C106.649305,85.3450839 112.570779,93.9364301 121.56,96 C126.063309,96.769535 130.438253,98.1594211 134.56,100.13 C149,107.69 157.33,119.56 157.68,135.87 C158.02,151.41 151.08,163.56 137.6,171.7 C133.08,174.43 128.11,175.8 123,176.9 Z" id="Path" fill="url(#linearGradient-1)"></path>
                <circle id="Oval" fill="url(#linearGradient-2)" cx="28.35" cy="148.04" r="28.35"></circle>
            </g>
        </g>
    </g>
</svg>
