<?xml version="1.0" encoding="UTF-8"?>
<svg xmlns:xlink="http://www.w3.org/1999/xlink" width="20px" height="18px" viewBox="0 0 20 18" version="1.1"
     xmlns="http://www.w3.org/2000/svg">
    <!-- Generator: Sketch 52 (66869) - http://www.bohemiancoding.com/sketch -->
    <title>icon/photo</title>
    <desc>Created with Sketch.</desc>
    <g id="icon/photo" stroke="none" stroke-width="1" fill="none" fill-rule="evenodd">
        <g fill="#606060">
            <path d="M13.1999998,9.99999928 C13.1999998,12.1333333 12.1333333,13.1999998 9.99999928,13.1999998 C7.8666662,13.1999998 6.79999966,12.1333333 6.79999966,9.99999928 C6.79999966,7.8666662 7.8666662,6.79999966 9.99999928,6.79999966 C12.1333333,6.79999966 13.1999998,7.8666662 13.1999998,9.99999928 Z"
                  id="Fill-2"></path>
            <path d="M6.99999946,-1.19999982e-07 L5.16999964,1.99999976 L1.99999976,1.99999976 C0.899999916,1.99999976 -1.2e-07,2.8999998 -1.2e-07,3.99999964 L-1.2e-07,15.9999989 C-1.2e-07,17.0999992 0.899999916,17.9999988 1.99999976,17.9999988 L17.9999988,17.9999988 C19.099999,17.9999988 19.9999987,17.0999992 19.9999987,15.9999989 L19.9999987,3.99999964 C19.9999987,2.8999998 19.099999,1.99999976 17.9999988,1.99999976 L14.8299989,1.99999976 L12.9999991,-1.19999982e-07 L6.99999946,-1.19999982e-07 Z M9.99999928,14.999999 C7.23999922,14.999999 4.99999958,12.7599993 4.99999958,9.99999928 C4.99999958,7.23999922 7.23999922,4.99999958 9.99999928,4.99999958 C12.7599993,4.99999958 14.999999,7.23999922 14.999999,9.99999928 C14.999999,12.7599993 12.7599993,14.999999 9.99999928,14.999999 Z"
                  id="Fill-3"></path>
        </g>
    </g>
</svg>